<mxfile host="Electron" agent="Mozilla/5.0 (Windows NT 10.0; Win64; x64) AppleWebKit/537.36 (KHTML, like Gecko) draw.io/26.0.16 Chrome/132.0.6834.196 Electron/34.2.0 Safari/537.36" version="26.0.16">
  <diagram name="Strona-1" id="Dm1qj64Fl999oqpVNm0x">
    <mxGraphModel dx="2022" dy="697" grid="1" gridSize="10" guides="1" tooltips="1" connect="1" arrows="1" fold="1" page="1" pageScale="1" pageWidth="827" pageHeight="1169" math="0" shadow="0">
      <root>
        <mxCell id="0" />
        <mxCell id="1" parent="0" />
        <mxCell id="ixpTXi_IbKpFAIj-xMG4-2" value="" style="rounded=0;whiteSpace=wrap;html=1;fillColor=none;dashed=1;strokeColor=#B3B3B3;strokeWidth=3;" parent="1" vertex="1">
          <mxGeometry x="80" y="230" width="150" height="400" as="geometry" />
        </mxCell>
        <mxCell id="ixpTXi_IbKpFAIj-xMG4-3" value="&lt;font style=&quot;font-size: 20px;&quot;&gt;Sources&lt;/font&gt;" style="rounded=0;whiteSpace=wrap;html=1;dashed=1;strokeWidth=3;strokeColor=#B3B3B3;fontStyle=1" parent="1" vertex="1">
          <mxGeometry x="105" y="210" width="100" height="40" as="geometry" />
        </mxCell>
        <mxCell id="ixpTXi_IbKpFAIj-xMG4-21" style="edgeStyle=orthogonalEdgeStyle;rounded=1;orthogonalLoop=1;jettySize=auto;html=1;entryX=0;entryY=0.5;entryDx=0;entryDy=0;curved=0;strokeWidth=2;" parent="1" source="ixpTXi_IbKpFAIj-xMG4-4" target="ixpTXi_IbKpFAIj-xMG4-11" edge="1">
          <mxGeometry relative="1" as="geometry">
            <Array as="points">
              <mxPoint x="250" y="340" />
              <mxPoint x="250" y="290" />
            </Array>
          </mxGeometry>
        </mxCell>
        <mxCell id="ixpTXi_IbKpFAIj-xMG4-22" style="edgeStyle=orthogonalEdgeStyle;rounded=1;orthogonalLoop=1;jettySize=auto;html=1;entryX=0;entryY=0.5;entryDx=0;entryDy=0;curved=0;strokeWidth=2;" parent="1" source="ixpTXi_IbKpFAIj-xMG4-4" target="ixpTXi_IbKpFAIj-xMG4-12" edge="1">
          <mxGeometry relative="1" as="geometry">
            <Array as="points">
              <mxPoint x="220" y="340" />
              <mxPoint x="220" y="340" />
            </Array>
          </mxGeometry>
        </mxCell>
        <mxCell id="ixpTXi_IbKpFAIj-xMG4-23" style="edgeStyle=orthogonalEdgeStyle;rounded=1;orthogonalLoop=1;jettySize=auto;html=1;entryX=0;entryY=0.5;entryDx=0;entryDy=0;curved=0;strokeWidth=2;" parent="1" source="ixpTXi_IbKpFAIj-xMG4-4" target="ixpTXi_IbKpFAIj-xMG4-13" edge="1">
          <mxGeometry relative="1" as="geometry">
            <Array as="points">
              <mxPoint x="250" y="340" />
              <mxPoint x="250" y="390" />
            </Array>
          </mxGeometry>
        </mxCell>
        <mxCell id="ixpTXi_IbKpFAIj-xMG4-4" value="&lt;b&gt;CRM&lt;/b&gt;" style="image;aspect=fixed;html=1;points=[];align=center;fontSize=12;image=img/lib/azure2/general/Folder_Blank.svg;" parent="1" vertex="1">
          <mxGeometry x="120.5" y="310" width="69" height="56.00000000000001" as="geometry" />
        </mxCell>
        <mxCell id="ixpTXi_IbKpFAIj-xMG4-5" value="" style="image;aspect=fixed;html=1;points=[];align=center;fontSize=12;image=img/lib/azure2/general/File.svg;" parent="1" vertex="1">
          <mxGeometry x="165.15" y="340" width="24.35" height="30" as="geometry" />
        </mxCell>
        <mxCell id="ixpTXi_IbKpFAIj-xMG4-17" style="edgeStyle=orthogonalEdgeStyle;rounded=1;orthogonalLoop=1;jettySize=auto;html=1;curved=0;strokeWidth=2;" parent="1" source="ixpTXi_IbKpFAIj-xMG4-6" target="ixpTXi_IbKpFAIj-xMG4-15" edge="1">
          <mxGeometry relative="1" as="geometry">
            <Array as="points">
              <mxPoint x="220" y="530" />
              <mxPoint x="220" y="530" />
            </Array>
          </mxGeometry>
        </mxCell>
        <mxCell id="ixpTXi_IbKpFAIj-xMG4-18" style="edgeStyle=orthogonalEdgeStyle;rounded=1;orthogonalLoop=1;jettySize=auto;html=1;curved=0;strokeWidth=2;" parent="1" source="ixpTXi_IbKpFAIj-xMG4-6" target="ixpTXi_IbKpFAIj-xMG4-14" edge="1">
          <mxGeometry relative="1" as="geometry">
            <Array as="points">
              <mxPoint x="250" y="530" />
              <mxPoint x="250" y="480" />
            </Array>
          </mxGeometry>
        </mxCell>
        <mxCell id="ixpTXi_IbKpFAIj-xMG4-19" style="edgeStyle=orthogonalEdgeStyle;rounded=1;orthogonalLoop=1;jettySize=auto;html=1;entryX=0;entryY=0.5;entryDx=0;entryDy=0;curved=0;strokeWidth=2;" parent="1" source="ixpTXi_IbKpFAIj-xMG4-6" target="ixpTXi_IbKpFAIj-xMG4-16" edge="1">
          <mxGeometry relative="1" as="geometry">
            <Array as="points">
              <mxPoint x="250" y="530" />
              <mxPoint x="250" y="580" />
            </Array>
          </mxGeometry>
        </mxCell>
        <mxCell id="ixpTXi_IbKpFAIj-xMG4-6" value="&lt;b&gt;ERP&lt;/b&gt;" style="image;aspect=fixed;html=1;points=[];align=center;fontSize=12;image=img/lib/azure2/general/Folder_Blank.svg;" parent="1" vertex="1">
          <mxGeometry x="120.5" y="500" width="69" height="56.00000000000001" as="geometry" />
        </mxCell>
        <mxCell id="ixpTXi_IbKpFAIj-xMG4-7" value="" style="image;aspect=fixed;html=1;points=[];align=center;fontSize=12;image=img/lib/azure2/general/File.svg;" parent="1" vertex="1">
          <mxGeometry x="165.15" y="530" width="24.35" height="30" as="geometry" />
        </mxCell>
        <mxCell id="ixpTXi_IbKpFAIj-xMG4-8" value="&lt;font style=&quot;font-size: 18px;&quot;&gt;Bronze Layer&lt;/font&gt;" style="rounded=0;whiteSpace=wrap;html=1;fillColor=#994C00;fontStyle=1" parent="1" vertex="1">
          <mxGeometry x="290" y="210" width="150" height="30" as="geometry" />
        </mxCell>
        <mxCell id="ixpTXi_IbKpFAIj-xMG4-9" value="" style="rounded=0;whiteSpace=wrap;html=1;fillColor=none;strokeColor=#994C00;strokeWidth=4;" parent="1" vertex="1">
          <mxGeometry x="290" y="250" width="150" height="380" as="geometry" />
        </mxCell>
        <mxCell id="s1K-Kz_-Cr2bNGHZBvWq-9" style="edgeStyle=orthogonalEdgeStyle;rounded=0;orthogonalLoop=1;jettySize=auto;html=1;exitX=1;exitY=0.5;exitDx=0;exitDy=0;entryX=0;entryY=0.5;entryDx=0;entryDy=0;strokeWidth=2;" parent="1" source="ixpTXi_IbKpFAIj-xMG4-11" target="s1K-Kz_-Cr2bNGHZBvWq-3" edge="1">
          <mxGeometry relative="1" as="geometry" />
        </mxCell>
        <mxCell id="ixpTXi_IbKpFAIj-xMG4-11" value="crm_cust_info" style="rounded=1;whiteSpace=wrap;html=1;fillColor=#994C00;fontStyle=1" parent="1" vertex="1">
          <mxGeometry x="310" y="270" width="110" height="40" as="geometry" />
        </mxCell>
        <mxCell id="s1K-Kz_-Cr2bNGHZBvWq-10" style="edgeStyle=orthogonalEdgeStyle;rounded=0;orthogonalLoop=1;jettySize=auto;html=1;entryX=0;entryY=0.5;entryDx=0;entryDy=0;strokeWidth=2;" parent="1" source="ixpTXi_IbKpFAIj-xMG4-12" target="s1K-Kz_-Cr2bNGHZBvWq-4" edge="1">
          <mxGeometry relative="1" as="geometry" />
        </mxCell>
        <mxCell id="ixpTXi_IbKpFAIj-xMG4-12" value="crm_prd_info" style="rounded=1;whiteSpace=wrap;html=1;fillColor=#994C00;fontStyle=1" parent="1" vertex="1">
          <mxGeometry x="310" y="320" width="110" height="40" as="geometry" />
        </mxCell>
        <mxCell id="s1K-Kz_-Cr2bNGHZBvWq-11" style="edgeStyle=orthogonalEdgeStyle;rounded=0;orthogonalLoop=1;jettySize=auto;html=1;entryX=0;entryY=0.5;entryDx=0;entryDy=0;strokeWidth=2;" parent="1" source="ixpTXi_IbKpFAIj-xMG4-13" target="s1K-Kz_-Cr2bNGHZBvWq-5" edge="1">
          <mxGeometry relative="1" as="geometry" />
        </mxCell>
        <mxCell id="ixpTXi_IbKpFAIj-xMG4-13" value="crm_sales_details" style="rounded=1;whiteSpace=wrap;html=1;fillColor=#994C00;fontStyle=1" parent="1" vertex="1">
          <mxGeometry x="310" y="370" width="110" height="40" as="geometry" />
        </mxCell>
        <mxCell id="s1K-Kz_-Cr2bNGHZBvWq-12" style="edgeStyle=orthogonalEdgeStyle;rounded=0;orthogonalLoop=1;jettySize=auto;html=1;entryX=0;entryY=0.5;entryDx=0;entryDy=0;strokeWidth=2;" parent="1" source="ixpTXi_IbKpFAIj-xMG4-14" target="s1K-Kz_-Cr2bNGHZBvWq-6" edge="1">
          <mxGeometry relative="1" as="geometry" />
        </mxCell>
        <mxCell id="ixpTXi_IbKpFAIj-xMG4-14" value="erp_cust_az12" style="rounded=1;whiteSpace=wrap;html=1;fillColor=#994C00;fontStyle=1" parent="1" vertex="1">
          <mxGeometry x="310" y="460" width="110" height="40" as="geometry" />
        </mxCell>
        <mxCell id="s1K-Kz_-Cr2bNGHZBvWq-13" style="edgeStyle=orthogonalEdgeStyle;rounded=0;orthogonalLoop=1;jettySize=auto;html=1;entryX=0;entryY=0.5;entryDx=0;entryDy=0;strokeWidth=2;" parent="1" source="ixpTXi_IbKpFAIj-xMG4-15" target="s1K-Kz_-Cr2bNGHZBvWq-7" edge="1">
          <mxGeometry relative="1" as="geometry" />
        </mxCell>
        <mxCell id="ixpTXi_IbKpFAIj-xMG4-15" value="erp_loc_a101" style="rounded=1;whiteSpace=wrap;html=1;fillColor=#994C00;fontStyle=1" parent="1" vertex="1">
          <mxGeometry x="310" y="510" width="110" height="40" as="geometry" />
        </mxCell>
        <mxCell id="s1K-Kz_-Cr2bNGHZBvWq-14" style="edgeStyle=orthogonalEdgeStyle;rounded=0;orthogonalLoop=1;jettySize=auto;html=1;entryX=0;entryY=0.5;entryDx=0;entryDy=0;strokeWidth=2;" parent="1" source="ixpTXi_IbKpFAIj-xMG4-16" target="s1K-Kz_-Cr2bNGHZBvWq-8" edge="1">
          <mxGeometry relative="1" as="geometry" />
        </mxCell>
        <mxCell id="ixpTXi_IbKpFAIj-xMG4-16" value="erp_px_cat_g1v2" style="rounded=1;whiteSpace=wrap;html=1;fillColor=#994C00;fontStyle=1" parent="1" vertex="1">
          <mxGeometry x="310" y="560" width="110" height="40" as="geometry" />
        </mxCell>
        <mxCell id="s1K-Kz_-Cr2bNGHZBvWq-1" value="&lt;font style=&quot;font-size: 18px;&quot;&gt;Silver Layer&lt;/font&gt;" style="rounded=0;whiteSpace=wrap;html=1;fillColor=#E6E6E6;" parent="1" vertex="1">
          <mxGeometry x="500" y="210" width="150" height="30" as="geometry" />
        </mxCell>
        <mxCell id="s1K-Kz_-Cr2bNGHZBvWq-2" value="" style="rounded=0;whiteSpace=wrap;html=1;fillColor=none;strokeColor=#E6E6E6;strokeWidth=4;" parent="1" vertex="1">
          <mxGeometry x="500" y="250" width="150" height="380" as="geometry" />
        </mxCell>
        <mxCell id="s1K-Kz_-Cr2bNGHZBvWq-3" value="crm_cust_info" style="rounded=1;whiteSpace=wrap;html=1;fillColor=#E6E6E6;fontStyle=1" parent="1" vertex="1">
          <mxGeometry x="520" y="270" width="110" height="40" as="geometry" />
        </mxCell>
        <mxCell id="s1K-Kz_-Cr2bNGHZBvWq-4" value="crm_prd_info" style="rounded=1;whiteSpace=wrap;html=1;fillColor=#E6E6E6;fontStyle=1" parent="1" vertex="1">
          <mxGeometry x="520" y="320" width="110" height="40" as="geometry" />
        </mxCell>
        <mxCell id="s1K-Kz_-Cr2bNGHZBvWq-5" value="crm_sales_details" style="rounded=1;whiteSpace=wrap;html=1;fillColor=#E6E6E6;fontStyle=1" parent="1" vertex="1">
          <mxGeometry x="520" y="370" width="110" height="40" as="geometry" />
        </mxCell>
        <mxCell id="s1K-Kz_-Cr2bNGHZBvWq-6" value="erp_cust_az12" style="rounded=1;whiteSpace=wrap;html=1;fillColor=#E6E6E6;fontStyle=1" parent="1" vertex="1">
          <mxGeometry x="520" y="460" width="110" height="40" as="geometry" />
        </mxCell>
        <mxCell id="s1K-Kz_-Cr2bNGHZBvWq-7" value="erp_loc_a101" style="rounded=1;whiteSpace=wrap;html=1;fillColor=#E6E6E6;fontStyle=1" parent="1" vertex="1">
          <mxGeometry x="520" y="510" width="110" height="40" as="geometry" />
        </mxCell>
        <mxCell id="s1K-Kz_-Cr2bNGHZBvWq-8" value="erp_px_cat_g1v2" style="rounded=1;whiteSpace=wrap;html=1;fillColor=#E6E6E6;fontStyle=1" parent="1" vertex="1">
          <mxGeometry x="520" y="560" width="110" height="40" as="geometry" />
        </mxCell>
        <mxCell id="OEorYU6g6_IF4asy_5Cg-1" value="&lt;font&gt;Data Flow Diagram&amp;nbsp;&lt;/font&gt;" style="text;html=1;align=center;verticalAlign=middle;whiteSpace=wrap;rounded=0;fontSize=50;fontStyle=1" parent="1" vertex="1">
          <mxGeometry x="-40" y="90" width="725" height="80" as="geometry" />
        </mxCell>
        <mxCell id="kDFshZYqVgl2-WyIYqRX-1" value="&lt;font style=&quot;font-size: 18px;&quot;&gt;Gold Layer&lt;/font&gt;" style="rounded=0;whiteSpace=wrap;html=1;fillColor=#FFFF00;" vertex="1" parent="1">
          <mxGeometry x="720" y="210" width="150" height="30" as="geometry" />
        </mxCell>
        <mxCell id="kDFshZYqVgl2-WyIYqRX-2" value="" style="rounded=0;whiteSpace=wrap;html=1;fillColor=none;strokeColor=#FFFF00;strokeWidth=4;" vertex="1" parent="1">
          <mxGeometry x="720" y="250" width="150" height="380" as="geometry" />
        </mxCell>
        <mxCell id="kDFshZYqVgl2-WyIYqRX-3" value="fact_sales" style="rounded=1;whiteSpace=wrap;html=1;fillColor=#FFFF00;fontStyle=1;strokeColor=#330000;" vertex="1" parent="1">
          <mxGeometry x="740" y="320" width="110" height="40" as="geometry" />
        </mxCell>
        <mxCell id="kDFshZYqVgl2-WyIYqRX-4" value="dim_customers" style="rounded=1;whiteSpace=wrap;html=1;fillColor=#FFFF00;fontStyle=1" vertex="1" parent="1">
          <mxGeometry x="740" y="420" width="110" height="40" as="geometry" />
        </mxCell>
        <mxCell id="kDFshZYqVgl2-WyIYqRX-5" value="dim_products" style="rounded=1;whiteSpace=wrap;html=1;fillColor=#FFFF00;fontStyle=1" vertex="1" parent="1">
          <mxGeometry x="740" y="508" width="110" height="40" as="geometry" />
        </mxCell>
        <mxCell id="kDFshZYqVgl2-WyIYqRX-11" value="" style="endArrow=classic;html=1;rounded=0;entryX=0;entryY=0.5;entryDx=0;entryDy=0;exitX=1;exitY=0.5;exitDx=0;exitDy=0;jumpStyle=gap;" edge="1" parent="1" source="s1K-Kz_-Cr2bNGHZBvWq-5" target="kDFshZYqVgl2-WyIYqRX-3">
          <mxGeometry width="50" height="50" relative="1" as="geometry">
            <mxPoint x="580" y="470" as="sourcePoint" />
            <mxPoint x="630" y="420" as="targetPoint" />
          </mxGeometry>
        </mxCell>
        <mxCell id="kDFshZYqVgl2-WyIYqRX-12" value="" style="endArrow=classic;html=1;rounded=0;entryX=0;entryY=0.5;entryDx=0;entryDy=0;exitX=1;exitY=0.5;exitDx=0;exitDy=0;jumpStyle=gap;" edge="1" parent="1" source="s1K-Kz_-Cr2bNGHZBvWq-3" target="kDFshZYqVgl2-WyIYqRX-4">
          <mxGeometry width="50" height="50" relative="1" as="geometry">
            <mxPoint x="640" y="400" as="sourcePoint" />
            <mxPoint x="750" y="350" as="targetPoint" />
          </mxGeometry>
        </mxCell>
        <mxCell id="kDFshZYqVgl2-WyIYqRX-13" value="" style="endArrow=classic;html=1;rounded=0;entryX=0;entryY=0.5;entryDx=0;entryDy=0;exitX=1;exitY=0.5;exitDx=0;exitDy=0;jumpStyle=gap;" edge="1" parent="1" source="s1K-Kz_-Cr2bNGHZBvWq-4" target="kDFshZYqVgl2-WyIYqRX-5">
          <mxGeometry width="50" height="50" relative="1" as="geometry">
            <mxPoint x="650" y="410" as="sourcePoint" />
            <mxPoint x="760" y="360" as="targetPoint" />
          </mxGeometry>
        </mxCell>
        <mxCell id="kDFshZYqVgl2-WyIYqRX-14" value="" style="endArrow=classic;html=1;rounded=0;entryX=0;entryY=0.5;entryDx=0;entryDy=0;exitX=1.009;exitY=0.598;exitDx=0;exitDy=0;exitPerimeter=0;jumpStyle=gap;" edge="1" parent="1" source="s1K-Kz_-Cr2bNGHZBvWq-6" target="kDFshZYqVgl2-WyIYqRX-4">
          <mxGeometry width="50" height="50" relative="1" as="geometry">
            <mxPoint x="660" y="420" as="sourcePoint" />
            <mxPoint x="770" y="370" as="targetPoint" />
          </mxGeometry>
        </mxCell>
        <mxCell id="kDFshZYqVgl2-WyIYqRX-15" value="" style="endArrow=classic;html=1;rounded=0;entryX=0;entryY=0.5;entryDx=0;entryDy=0;exitX=1;exitY=0.5;exitDx=0;exitDy=0;jumpStyle=gap;" edge="1" parent="1" source="s1K-Kz_-Cr2bNGHZBvWq-7" target="kDFshZYqVgl2-WyIYqRX-4">
          <mxGeometry width="50" height="50" relative="1" as="geometry">
            <mxPoint x="670" y="430" as="sourcePoint" />
            <mxPoint x="780" y="380" as="targetPoint" />
          </mxGeometry>
        </mxCell>
        <mxCell id="kDFshZYqVgl2-WyIYqRX-16" value="" style="endArrow=classic;html=1;rounded=0;entryX=0;entryY=0.5;entryDx=0;entryDy=0;exitX=1;exitY=0.5;exitDx=0;exitDy=0;jumpStyle=gap;" edge="1" parent="1" source="s1K-Kz_-Cr2bNGHZBvWq-8" target="kDFshZYqVgl2-WyIYqRX-5">
          <mxGeometry width="50" height="50" relative="1" as="geometry">
            <mxPoint x="680" y="440" as="sourcePoint" />
            <mxPoint x="790" y="390" as="targetPoint" />
          </mxGeometry>
        </mxCell>
      </root>
    </mxGraphModel>
  </diagram>
</mxfile>
